<?xml version="1.0" encoding="UTF-8" standalone="no"?><svg xmlns="http://www.w3.org/2000/svg" xmlns:xlink="http://www.w3.org/1999/xlink" contentScriptType="application/ecmascript" contentStyleType="text/css" height="623px" preserveAspectRatio="none" style="width:589px;height:623px;background:#FFFFFF;" version="1.1" viewBox="0 0 589 623" width="589px" zoomAndPan="magnify"><defs><filter height="300%" id="f1sra6w3574l0h" width="300%" x="-1" y="-1"><feGaussianBlur result="blurOut" stdDeviation="2.0"/><feColorMatrix in="blurOut" result="blurOut2" type="matrix" values="0 0 0 0 0 0 0 0 0 0 0 0 0 0 0 0 0 0 .4 0"/><feOffset dx="4.0" dy="4.0" in="blurOut2" result="blurOut3"/><feBlend in="SourceGraphic" in2="blurOut3" mode="normal"/></filter></defs><g><!--MD5=[41e48c1160f7e15db7cd58155ffa96a0]
class Buff--><rect codeLine="2" fill="#FEFECE" filter="url(#f1sra6w3574l0h)" height="48" id="Buff" style="stroke:#A80036;stroke-width:1.5;" width="56" x="394.5" y="395"/><ellipse cx="409.5" cy="411" fill="#B4A7E5" rx="11" ry="11" style="stroke:#A80036;stroke-width:1.0;"/><path d="M410.4531,407.7813 L412.1719,407.7813 C412.5625,407.7813 412.75,407.75 412.875,407.6719 C413.1406,407.5156 413.2813,407.2344 413.2813,406.9375 C413.2813,406.6719 413.1719,406.4063 412.9375,406.2344 C412.7656,406.125 412.625,406.0938 412.1719,406.0938 L407.0313,406.0938 C406.5938,406.0938 406.4688,406.1094 406.3125,406.2031 C406.0625,406.3594 405.9063,406.6563 405.9063,406.9375 C405.9063,407.2188 406.0469,407.4688 406.2656,407.6406 C406.4219,407.75 406.6094,407.7813 407.0313,407.7813 L408.75,407.7813 L408.75,414.2969 L407.0313,414.2969 C406.5938,414.2969 406.4688,414.3125 406.3125,414.4219 C406.0625,414.5781 405.9063,414.8594 405.9063,415.1563 C405.9063,415.4063 406.0469,415.6719 406.2656,415.8281 C406.4219,415.9531 406.625,416 407.0313,416 L412.1719,416 C412.9219,416 413.2813,415.7188 413.2813,415.1563 C413.2813,414.875 413.1719,414.625 412.9375,414.4531 C412.7656,414.3281 412.625,414.2969 412.1719,414.2969 L410.4531,414.2969 L410.4531,407.7813 Z " fill="#000000"/><text fill="#000000" font-family="sans-serif" font-size="12" font-style="italic" lengthAdjust="spacing" textLength="24" x="423.5" y="415.1543">Buff</text><line style="stroke:#A80036;stroke-width:1.5;" x1="395.5" x2="449.5" y1="427" y2="427"/><line style="stroke:#A80036;stroke-width:1.5;" x1="395.5" x2="449.5" y1="435" y2="435"/><!--MD5=[e1ae6f2cea02e276685729daa4ac67c0]
class Damage--><rect fill="#FEFECE" filter="url(#f1sra6w3574l0h)" height="86.4141" id="Damage" style="stroke:#A80036;stroke-width:1.5;" width="82" x="154.5" y="523"/><ellipse cx="169.5" cy="539" fill="#ADD1B2" rx="11" ry="11" style="stroke:#A80036;stroke-width:1.0;"/><path d="M171.8438,534.6719 C170.9063,534.2344 170.3125,534.0938 169.4375,534.0938 C166.8125,534.0938 164.8125,536.1719 164.8125,538.8906 L164.8125,540.0156 C164.8125,542.5938 166.9219,544.4844 169.8125,544.4844 C171.0313,544.4844 172.1875,544.1875 172.9375,543.6406 C173.5156,543.2344 173.8438,542.7813 173.8438,542.3906 C173.8438,541.9375 173.4531,541.5469 172.9844,541.5469 C172.7656,541.5469 172.5625,541.625 172.375,541.8125 C171.9219,542.2969 171.9219,542.2969 171.7344,542.3906 C171.3125,542.6563 170.625,542.7813 169.8594,542.7813 C167.8125,542.7813 166.5156,541.6875 166.5156,539.9844 L166.5156,538.8906 C166.5156,537.1094 167.7656,535.7969 169.5,535.7969 C170.0781,535.7969 170.6875,535.9531 171.1563,536.2031 C171.6406,536.4844 171.8125,536.7031 171.9063,537.1094 C171.9688,537.5156 172,537.6406 172.1406,537.7656 C172.2813,537.9063 172.5156,538.0156 172.7344,538.0156 C173,538.0156 173.2656,537.875 173.4375,537.6563 C173.5469,537.5 173.5781,537.3125 173.5781,536.8906 L173.5781,535.4688 C173.5781,535.0313 173.5625,534.9063 173.4688,534.75 C173.3125,534.4844 173.0313,534.3438 172.7344,534.3438 C172.4375,534.3438 172.2344,534.4375 172.0156,534.75 L171.8438,534.6719 Z " fill="#000000"/><text fill="#000000" font-family="sans-serif" font-size="12" lengthAdjust="spacing" textLength="50" x="183.5" y="543.1543">Damage</text><line style="stroke:#A80036;stroke-width:1.5;" x1="155.5" x2="235.5" y1="555" y2="555"/><text fill="#000000" font-family="sans-serif" font-size="11" lengthAdjust="spacing" textLength="46" x="160.5" y="569.2104">int base</text><text fill="#000000" font-family="sans-serif" font-size="11" lengthAdjust="spacing" textLength="63" x="160.5" y="582.0151">int ceramic</text><text fill="#000000" font-family="sans-serif" font-size="11" lengthAdjust="spacing" textLength="50" x="160.5" y="594.8198">int moab</text><line style="stroke:#A80036;stroke-width:1.5;" x1="155.5" x2="235.5" y1="601.4141" y2="601.4141"/><!--MD5=[9e086ae7cb173547c374b8a4e58c7dec]
class Projectile--><rect fill="#FEFECE" filter="url(#f1sra6w3574l0h)" height="73.6094" id="Projectile" style="stroke:#A80036;stroke-width:1.5;" width="135" x="7" y="382"/><ellipse cx="43.6" cy="398" fill="#ADD1B2" rx="11" ry="11" style="stroke:#A80036;stroke-width:1.0;"/><path d="M45.9438,393.6719 C45.0063,393.2344 44.4125,393.0938 43.5375,393.0938 C40.9125,393.0938 38.9125,395.1719 38.9125,397.8906 L38.9125,399.0156 C38.9125,401.5938 41.0219,403.4844 43.9125,403.4844 C45.1313,403.4844 46.2875,403.1875 47.0375,402.6406 C47.6156,402.2344 47.9438,401.7813 47.9438,401.3906 C47.9438,400.9375 47.5531,400.5469 47.0844,400.5469 C46.8656,400.5469 46.6625,400.625 46.475,400.8125 C46.0219,401.2969 46.0219,401.2969 45.8344,401.3906 C45.4125,401.6563 44.725,401.7813 43.9594,401.7813 C41.9125,401.7813 40.6156,400.6875 40.6156,398.9844 L40.6156,397.8906 C40.6156,396.1094 41.8656,394.7969 43.6,394.7969 C44.1781,394.7969 44.7875,394.9531 45.2563,395.2031 C45.7406,395.4844 45.9125,395.7031 46.0063,396.1094 C46.0688,396.5156 46.1,396.6406 46.2406,396.7656 C46.3813,396.9063 46.6156,397.0156 46.8344,397.0156 C47.1,397.0156 47.3656,396.875 47.5375,396.6563 C47.6469,396.5 47.6781,396.3125 47.6781,395.8906 L47.6781,394.4688 C47.6781,394.0313 47.6625,393.9063 47.5688,393.75 C47.4125,393.4844 47.1313,393.3438 46.8344,393.3438 C46.5375,393.3438 46.3344,393.4375 46.1156,393.75 L45.9438,393.6719 Z " fill="#000000"/><text fill="#000000" font-family="sans-serif" font-size="12" lengthAdjust="spacing" textLength="55" x="62.4" y="402.1543">Projectile</text><line style="stroke:#A80036;stroke-width:1.5;" x1="8" x2="141" y1="414" y2="414"/><text fill="#000000" font-family="sans-serif" font-size="11" lengthAdjust="spacing" textLength="54" x="13" y="428.2104">int pierce</text><text fill="#000000" font-family="sans-serif" font-size="11" lengthAdjust="spacing" textLength="123" x="13" y="441.0151">int numSubProjectiles</text><line style="stroke:#A80036;stroke-width:1.5;" x1="8" x2="141" y1="447.6094" y2="447.6094"/><!--MD5=[7ac02b56c149fd063c37b1309e8be999]
class Attack--><rect fill="#FEFECE" filter="url(#f1sra6w3574l0h)" height="73.6094" id="Attack" style="stroke:#A80036;stroke-width:1.5;" width="113" x="49" y="225"/><ellipse cx="83.8" cy="241" fill="#ADD1B2" rx="11" ry="11" style="stroke:#A80036;stroke-width:1.0;"/><path d="M86.1438,236.6719 C85.2063,236.2344 84.6125,236.0938 83.7375,236.0938 C81.1125,236.0938 79.1125,238.1719 79.1125,240.8906 L79.1125,242.0156 C79.1125,244.5938 81.2219,246.4844 84.1125,246.4844 C85.3313,246.4844 86.4875,246.1875 87.2375,245.6406 C87.8156,245.2344 88.1438,244.7813 88.1438,244.3906 C88.1438,243.9375 87.7531,243.5469 87.2844,243.5469 C87.0656,243.5469 86.8625,243.625 86.675,243.8125 C86.2219,244.2969 86.2219,244.2969 86.0344,244.3906 C85.6125,244.6563 84.925,244.7813 84.1594,244.7813 C82.1125,244.7813 80.8156,243.6875 80.8156,241.9844 L80.8156,240.8906 C80.8156,239.1094 82.0656,237.7969 83.8,237.7969 C84.3781,237.7969 84.9875,237.9531 85.4563,238.2031 C85.9406,238.4844 86.1125,238.7031 86.2063,239.1094 C86.2688,239.5156 86.3,239.6406 86.4406,239.7656 C86.5813,239.9063 86.8156,240.0156 87.0344,240.0156 C87.3,240.0156 87.5656,239.875 87.7375,239.6563 C87.8469,239.5 87.8781,239.3125 87.8781,238.8906 L87.8781,237.4688 C87.8781,237.0313 87.8625,236.9063 87.7688,236.75 C87.6125,236.4844 87.3313,236.3438 87.0344,236.3438 C86.7375,236.3438 86.5344,236.4375 86.3156,236.75 L86.1438,236.6719 Z " fill="#000000"/><text fill="#000000" font-family="sans-serif" font-size="12" lengthAdjust="spacing" textLength="37" x="102.2" y="245.1543">Attack</text><line style="stroke:#A80036;stroke-width:1.5;" x1="50" x2="161" y1="257" y2="257"/><text fill="#000000" font-family="sans-serif" font-size="11" lengthAdjust="spacing" textLength="96" x="55" y="271.2104">double cooldown</text><text fill="#000000" font-family="sans-serif" font-size="11" lengthAdjust="spacing" textLength="101" x="55" y="284.0151">int numProjectiles</text><line style="stroke:#A80036;stroke-width:1.5;" x1="50" x2="161" y1="290.6094" y2="290.6094"/><!--MD5=[41f0e8f16aa7531343b768fb6f680cc8]
class AttackBuff--><rect fill="#FEFECE" filter="url(#f1sra6w3574l0h)" height="86.4141" id="AttackBuff" style="stroke:#A80036;stroke-width:1.5;" width="164" x="195.5" y="376"/><ellipse cx="243.25" cy="392" fill="#ADD1B2" rx="11" ry="11" style="stroke:#A80036;stroke-width:1.0;"/><path d="M245.5938,387.6719 C244.6563,387.2344 244.0625,387.0938 243.1875,387.0938 C240.5625,387.0938 238.5625,389.1719 238.5625,391.8906 L238.5625,393.0156 C238.5625,395.5938 240.6719,397.4844 243.5625,397.4844 C244.7813,397.4844 245.9375,397.1875 246.6875,396.6406 C247.2656,396.2344 247.5938,395.7813 247.5938,395.3906 C247.5938,394.9375 247.2031,394.5469 246.7344,394.5469 C246.5156,394.5469 246.3125,394.625 246.125,394.8125 C245.6719,395.2969 245.6719,395.2969 245.4844,395.3906 C245.0625,395.6563 244.375,395.7813 243.6094,395.7813 C241.5625,395.7813 240.2656,394.6875 240.2656,392.9844 L240.2656,391.8906 C240.2656,390.1094 241.5156,388.7969 243.25,388.7969 C243.8281,388.7969 244.4375,388.9531 244.9063,389.2031 C245.3906,389.4844 245.5625,389.7031 245.6563,390.1094 C245.7188,390.5156 245.75,390.6406 245.8906,390.7656 C246.0313,390.9063 246.2656,391.0156 246.4844,391.0156 C246.75,391.0156 247.0156,390.875 247.1875,390.6563 C247.2969,390.5 247.3281,390.3125 247.3281,389.8906 L247.3281,388.4688 C247.3281,388.0313 247.3125,387.9063 247.2188,387.75 C247.0625,387.4844 246.7813,387.3438 246.4844,387.3438 C246.1875,387.3438 245.9844,387.4375 245.7656,387.75 L245.5938,387.6719 Z " fill="#000000"/><text fill="#000000" font-family="sans-serif" font-size="12" lengthAdjust="spacing" textLength="60" x="263.75" y="396.1543">AttackBuff</text><line style="stroke:#A80036;stroke-width:1.5;" x1="196.5" x2="358.5" y1="408" y2="408"/><text fill="#000000" font-family="sans-serif" font-size="11" lengthAdjust="spacing" textLength="103" x="201.5" y="422.2104">int pierceIncrease</text><text fill="#000000" font-family="sans-serif" font-size="11" lengthAdjust="spacing" textLength="152" x="201.5" y="435.0151">double cooldownDecrease</text><text fill="#000000" font-family="sans-serif" font-size="11" lengthAdjust="spacing" textLength="120" x="201.5" y="447.8198">int projectileIncrease</text><line style="stroke:#A80036;stroke-width:1.5;" x1="196.5" x2="358.5" y1="454.4141" y2="454.4141"/><!--MD5=[95e2f06ddd4e9620ca9947226bcfc456]
class UpgradePath--><rect fill="#FEFECE" filter="url(#f1sra6w3574l0h)" height="48" id="UpgradePath" style="stroke:#A80036;stroke-width:1.5;" width="109" x="386" y="116"/><ellipse cx="401" cy="132" fill="#ADD1B2" rx="11" ry="11" style="stroke:#A80036;stroke-width:1.0;"/><path d="M403.3438,127.6719 C402.4063,127.2344 401.8125,127.0938 400.9375,127.0938 C398.3125,127.0938 396.3125,129.1719 396.3125,131.8906 L396.3125,133.0156 C396.3125,135.5938 398.4219,137.4844 401.3125,137.4844 C402.5313,137.4844 403.6875,137.1875 404.4375,136.6406 C405.0156,136.2344 405.3438,135.7813 405.3438,135.3906 C405.3438,134.9375 404.9531,134.5469 404.4844,134.5469 C404.2656,134.5469 404.0625,134.625 403.875,134.8125 C403.4219,135.2969 403.4219,135.2969 403.2344,135.3906 C402.8125,135.6563 402.125,135.7813 401.3594,135.7813 C399.3125,135.7813 398.0156,134.6875 398.0156,132.9844 L398.0156,131.8906 C398.0156,130.1094 399.2656,128.7969 401,128.7969 C401.5781,128.7969 402.1875,128.9531 402.6563,129.2031 C403.1406,129.4844 403.3125,129.7031 403.4063,130.1094 C403.4688,130.5156 403.5,130.6406 403.6406,130.7656 C403.7813,130.9063 404.0156,131.0156 404.2344,131.0156 C404.5,131.0156 404.7656,130.875 404.9375,130.6563 C405.0469,130.5 405.0781,130.3125 405.0781,129.8906 L405.0781,128.4688 C405.0781,128.0313 405.0625,127.9063 404.9688,127.75 C404.8125,127.4844 404.5313,127.3438 404.2344,127.3438 C403.9375,127.3438 403.7344,127.4375 403.5156,127.75 L403.3438,127.6719 Z " fill="#000000"/><text fill="#000000" font-family="sans-serif" font-size="12" lengthAdjust="spacing" textLength="77" x="415" y="136.1543">UpgradePath</text><line style="stroke:#A80036;stroke-width:1.5;" x1="387" x2="494" y1="148" y2="148"/><line style="stroke:#A80036;stroke-width:1.5;" x1="387" x2="494" y1="156" y2="156"/><!--MD5=[9b957bd416e562125b092314b029623f]
class Upgrade--><rect fill="#FEFECE" filter="url(#f1sra6w3574l0h)" height="48" id="Upgrade" style="stroke:#A80036;stroke-width:1.5;" width="85" x="490" y="238"/><ellipse cx="505" cy="254" fill="#ADD1B2" rx="11" ry="11" style="stroke:#A80036;stroke-width:1.0;"/><path d="M507.3438,249.6719 C506.4063,249.2344 505.8125,249.0938 504.9375,249.0938 C502.3125,249.0938 500.3125,251.1719 500.3125,253.8906 L500.3125,255.0156 C500.3125,257.5938 502.4219,259.4844 505.3125,259.4844 C506.5313,259.4844 507.6875,259.1875 508.4375,258.6406 C509.0156,258.2344 509.3438,257.7813 509.3438,257.3906 C509.3438,256.9375 508.9531,256.5469 508.4844,256.5469 C508.2656,256.5469 508.0625,256.625 507.875,256.8125 C507.4219,257.2969 507.4219,257.2969 507.2344,257.3906 C506.8125,257.6563 506.125,257.7813 505.3594,257.7813 C503.3125,257.7813 502.0156,256.6875 502.0156,254.9844 L502.0156,253.8906 C502.0156,252.1094 503.2656,250.7969 505,250.7969 C505.5781,250.7969 506.1875,250.9531 506.6563,251.2031 C507.1406,251.4844 507.3125,251.7031 507.4063,252.1094 C507.4688,252.5156 507.5,252.6406 507.6406,252.7656 C507.7813,252.9063 508.0156,253.0156 508.2344,253.0156 C508.5,253.0156 508.7656,252.875 508.9375,252.6563 C509.0469,252.5 509.0781,252.3125 509.0781,251.8906 L509.0781,250.4688 C509.0781,250.0313 509.0625,249.9063 508.9688,249.75 C508.8125,249.4844 508.5313,249.3438 508.2344,249.3438 C507.9375,249.3438 507.7344,249.4375 507.5156,249.75 L507.3438,249.6719 Z " fill="#000000"/><text fill="#000000" font-family="sans-serif" font-size="12" lengthAdjust="spacing" textLength="53" x="519" y="258.1543">Upgrade</text><line style="stroke:#A80036;stroke-width:1.5;" x1="491" x2="574" y1="270" y2="270"/><line style="stroke:#A80036;stroke-width:1.5;" x1="491" x2="574" y1="278" y2="278"/><!--MD5=[6c891e25cb9e44721f12713466520313]
class AttacksBuff--><rect fill="#FEFECE" filter="url(#f1sra6w3574l0h)" height="48" id="AttacksBuff" style="stroke:#A80036;stroke-width:1.5;" width="99" x="228" y="238"/><ellipse cx="243" cy="254" fill="#ADD1B2" rx="11" ry="11" style="stroke:#A80036;stroke-width:1.0;"/><path d="M245.3438,249.6719 C244.4063,249.2344 243.8125,249.0938 242.9375,249.0938 C240.3125,249.0938 238.3125,251.1719 238.3125,253.8906 L238.3125,255.0156 C238.3125,257.5938 240.4219,259.4844 243.3125,259.4844 C244.5313,259.4844 245.6875,259.1875 246.4375,258.6406 C247.0156,258.2344 247.3438,257.7813 247.3438,257.3906 C247.3438,256.9375 246.9531,256.5469 246.4844,256.5469 C246.2656,256.5469 246.0625,256.625 245.875,256.8125 C245.4219,257.2969 245.4219,257.2969 245.2344,257.3906 C244.8125,257.6563 244.125,257.7813 243.3594,257.7813 C241.3125,257.7813 240.0156,256.6875 240.0156,254.9844 L240.0156,253.8906 C240.0156,252.1094 241.2656,250.7969 243,250.7969 C243.5781,250.7969 244.1875,250.9531 244.6563,251.2031 C245.1406,251.4844 245.3125,251.7031 245.4063,252.1094 C245.4688,252.5156 245.5,252.6406 245.6406,252.7656 C245.7813,252.9063 246.0156,253.0156 246.2344,253.0156 C246.5,253.0156 246.7656,252.875 246.9375,252.6563 C247.0469,252.5 247.0781,252.3125 247.0781,251.8906 L247.0781,250.4688 C247.0781,250.0313 247.0625,249.9063 246.9688,249.75 C246.8125,249.4844 246.5313,249.3438 246.2344,249.3438 C245.9375,249.3438 245.7344,249.4375 245.5156,249.75 L245.3438,249.6719 Z " fill="#000000"/><text fill="#000000" font-family="sans-serif" font-size="12" lengthAdjust="spacing" textLength="67" x="257" y="258.1543">AttacksBuff</text><line style="stroke:#A80036;stroke-width:1.5;" x1="229" x2="326" y1="270" y2="270"/><line style="stroke:#A80036;stroke-width:1.5;" x1="229" x2="326" y1="278" y2="278"/><!--MD5=[4c5980ccb0671e3d98a9070b4780ff8c]
class AddAttack--><rect fill="#FEFECE" filter="url(#f1sra6w3574l0h)" height="48" id="AddAttack" style="stroke:#A80036;stroke-width:1.5;" width="93" x="362" y="238"/><ellipse cx="377" cy="254" fill="#ADD1B2" rx="11" ry="11" style="stroke:#A80036;stroke-width:1.0;"/><path d="M379.3438,249.6719 C378.4063,249.2344 377.8125,249.0938 376.9375,249.0938 C374.3125,249.0938 372.3125,251.1719 372.3125,253.8906 L372.3125,255.0156 C372.3125,257.5938 374.4219,259.4844 377.3125,259.4844 C378.5313,259.4844 379.6875,259.1875 380.4375,258.6406 C381.0156,258.2344 381.3438,257.7813 381.3438,257.3906 C381.3438,256.9375 380.9531,256.5469 380.4844,256.5469 C380.2656,256.5469 380.0625,256.625 379.875,256.8125 C379.4219,257.2969 379.4219,257.2969 379.2344,257.3906 C378.8125,257.6563 378.125,257.7813 377.3594,257.7813 C375.3125,257.7813 374.0156,256.6875 374.0156,254.9844 L374.0156,253.8906 C374.0156,252.1094 375.2656,250.7969 377,250.7969 C377.5781,250.7969 378.1875,250.9531 378.6563,251.2031 C379.1406,251.4844 379.3125,251.7031 379.4063,252.1094 C379.4688,252.5156 379.5,252.6406 379.6406,252.7656 C379.7813,252.9063 380.0156,253.0156 380.2344,253.0156 C380.5,253.0156 380.7656,252.875 380.9375,252.6563 C381.0469,252.5 381.0781,252.3125 381.0781,251.8906 L381.0781,250.4688 C381.0781,250.0313 381.0625,249.9063 380.9688,249.75 C380.8125,249.4844 380.5313,249.3438 380.2344,249.3438 C379.9375,249.3438 379.7344,249.4375 379.5156,249.75 L379.3438,249.6719 Z " fill="#000000"/><text fill="#000000" font-family="sans-serif" font-size="12" lengthAdjust="spacing" textLength="61" x="391" y="258.1543">AddAttack</text><line style="stroke:#A80036;stroke-width:1.5;" x1="363" x2="454" y1="270" y2="270"/><line style="stroke:#A80036;stroke-width:1.5;" x1="363" x2="454" y1="278" y2="278"/><!--MD5=[321cd714d6a8e53c597613204c4f3e3c]
class AttackList--><rect fill="#FEFECE" filter="url(#f1sra6w3574l0h)" height="48" id="AttackList" style="stroke:#A80036;stroke-width:1.5;" width="89" x="244" y="116"/><ellipse cx="259" cy="132" fill="#ADD1B2" rx="11" ry="11" style="stroke:#A80036;stroke-width:1.0;"/><path d="M261.3438,127.6719 C260.4063,127.2344 259.8125,127.0938 258.9375,127.0938 C256.3125,127.0938 254.3125,129.1719 254.3125,131.8906 L254.3125,133.0156 C254.3125,135.5938 256.4219,137.4844 259.3125,137.4844 C260.5313,137.4844 261.6875,137.1875 262.4375,136.6406 C263.0156,136.2344 263.3438,135.7813 263.3438,135.3906 C263.3438,134.9375 262.9531,134.5469 262.4844,134.5469 C262.2656,134.5469 262.0625,134.625 261.875,134.8125 C261.4219,135.2969 261.4219,135.2969 261.2344,135.3906 C260.8125,135.6563 260.125,135.7813 259.3594,135.7813 C257.3125,135.7813 256.0156,134.6875 256.0156,132.9844 L256.0156,131.8906 C256.0156,130.1094 257.2656,128.7969 259,128.7969 C259.5781,128.7969 260.1875,128.9531 260.6563,129.2031 C261.1406,129.4844 261.3125,129.7031 261.4063,130.1094 C261.4688,130.5156 261.5,130.6406 261.6406,130.7656 C261.7813,130.9063 262.0156,131.0156 262.2344,131.0156 C262.5,131.0156 262.7656,130.875 262.9375,130.6563 C263.0469,130.5 263.0781,130.3125 263.0781,129.8906 L263.0781,128.4688 C263.0781,128.0313 263.0625,127.9063 262.9688,127.75 C262.8125,127.4844 262.5313,127.3438 262.2344,127.3438 C261.9375,127.3438 261.7344,127.4375 261.5156,127.75 L261.3438,127.6719 Z " fill="#000000"/><text fill="#000000" font-family="sans-serif" font-size="12" lengthAdjust="spacing" textLength="57" x="273" y="136.1543">AttackList</text><line style="stroke:#A80036;stroke-width:1.5;" x1="245" x2="332" y1="148" y2="148"/><line style="stroke:#A80036;stroke-width:1.5;" x1="245" x2="332" y1="156" y2="156"/><!--MD5=[e6a0401af6286042726057f986c3e7c8]
class Tower--><rect fill="#FEFECE" filter="url(#f1sra6w3574l0h)" height="48" id="Tower" style="stroke:#A80036;stroke-width:1.5;" width="70" x="342.5" y="7"/><ellipse cx="357.5" cy="23" fill="#ADD1B2" rx="11" ry="11" style="stroke:#A80036;stroke-width:1.0;"/><path d="M359.8438,18.6719 C358.9063,18.2344 358.3125,18.0938 357.4375,18.0938 C354.8125,18.0938 352.8125,20.1719 352.8125,22.8906 L352.8125,24.0156 C352.8125,26.5938 354.9219,28.4844 357.8125,28.4844 C359.0313,28.4844 360.1875,28.1875 360.9375,27.6406 C361.5156,27.2344 361.8438,26.7813 361.8438,26.3906 C361.8438,25.9375 361.4531,25.5469 360.9844,25.5469 C360.7656,25.5469 360.5625,25.625 360.375,25.8125 C359.9219,26.2969 359.9219,26.2969 359.7344,26.3906 C359.3125,26.6563 358.625,26.7813 357.8594,26.7813 C355.8125,26.7813 354.5156,25.6875 354.5156,23.9844 L354.5156,22.8906 C354.5156,21.1094 355.7656,19.7969 357.5,19.7969 C358.0781,19.7969 358.6875,19.9531 359.1563,20.2031 C359.6406,20.4844 359.8125,20.7031 359.9063,21.1094 C359.9688,21.5156 360,21.6406 360.1406,21.7656 C360.2813,21.9063 360.5156,22.0156 360.7344,22.0156 C361,22.0156 361.2656,21.875 361.4375,21.6563 C361.5469,21.5 361.5781,21.3125 361.5781,20.8906 L361.5781,19.4688 C361.5781,19.0313 361.5625,18.9063 361.4688,18.75 C361.3125,18.4844 361.0313,18.3438 360.7344,18.3438 C360.4375,18.3438 360.2344,18.4375 360.0156,18.75 L359.8438,18.6719 Z " fill="#000000"/><text fill="#000000" font-family="sans-serif" font-size="12" lengthAdjust="spacing" textLength="38" x="371.5" y="27.1543">Tower</text><line style="stroke:#A80036;stroke-width:1.5;" x1="343.5" x2="411.5" y1="39" y2="39"/><line style="stroke:#A80036;stroke-width:1.5;" x1="343.5" x2="411.5" y1="47" y2="47"/><!--MD5=[38e04ce987c172bab1b06b6319852e71]
link Projectile to Damage--><path codeLine="10" d="M104.7213,456.216 C121.591,476.431 142.692,501.718 160.304,522.8233 " fill="none" id="Projectile-Damage" style="stroke:#A80036;stroke-width:1.0;"/><!--MD5=[a1081e1975e107a51facffc2781d2206]
link Projectile to Projectile--><path codeLine="11" d="M142.026,405.54 C161.734,406.006 177,410.492 177,419 C177,427.508 161.734,431.994 142.026,432.46 " fill="none" id="Projectile-Projectile" style="stroke:#A80036;stroke-width:1.0;"/><text fill="#000000" font-family="sans-serif" font-size="13" lengthAdjust="spacing" textLength="81" x="107.5267" y="433.0435">subProjectile</text><!--MD5=[6c6c98563d0cb5dc2fe6cef37c94ffa3]
link Attack to Projectile--><path codeLine="15" d="M98.2319,299.341 C93.2568,324.216 86.6879,357.061 81.7226,381.887 " fill="none" id="Attack-Projectile" style="stroke:#A80036;stroke-width:1.0;"/><polygon fill="#000000" points="96.5194,342.4693,101.1752,334.1762,95.4115,333.0235,96.5194,342.4693" style="stroke:#000000;stroke-width:1.0;"/><text fill="#000000" font-family="sans-serif" font-size="13" lengthAdjust="spacing" textLength="30" x="106.5" y="342.0669">uses</text><!--MD5=[031f22bcc4b15adaebe2da85abb4417d]
link AttackBuff to Damage--><path codeLine="20" d="M253.562,462.33 C242.784,481.389 230.091,503.833 219.326,522.8683 " fill="none" id="AttackBuff-Damage" style="stroke:#A80036;stroke-width:1.0;"/><!--MD5=[459dc3b8db4b8ab9fb4e4022262f4c78]
link UpgradePath to Upgrade--><path codeLine="22" d="M458.239,164.137 C474.53,185.386 498.542,216.707 514.816,237.934 " fill="none" id="UpgradePath-Upgrade" style="stroke:#A80036;stroke-width:1.0;"/><text fill="#000000" font-family="sans-serif" font-size="13" lengthAdjust="spacing" textLength="8" x="453.5879" y="183.9316">1</text><text fill="#000000" font-family="sans-serif" font-size="13" lengthAdjust="spacing" textLength="24" x="483.2095" y="226.9291">1..5</text><!--MD5=[830659cadadad5a1f1ea2abe5a305cb2]
reverse link Upgrade to Buff--><path codeLine="24" d="M508.438,296.905 C487.366,326.598 457.314,368.944 438.901,394.89 " fill="none" id="Upgrade-backto-Buff" style="stroke:#A80036;stroke-width:1.0;"/><polygon fill="#FFFFFF" points="516.032,286.205,509.2974,288.7828,509.0866,295.9908,515.8212,293.413,516.032,286.205" style="stroke:#A80036;stroke-width:1.0;"/><!--MD5=[bc5c15973f22e64f8d9277856642b249]
link AttacksBuff to Buff--><path codeLine="25" d="M299.208,286.205 C322.446,311.046 359.675,350.842 387.15,380.212 " fill="none" id="AttacksBuff-to-Buff" style="stroke:#A80036;stroke-width:1.0;stroke-dasharray:7.0,7.0;"/><polygon fill="none" points="392.33,375.502,400.881,394.89,382.106,385.066,392.33,375.502" style="stroke:#A80036;stroke-width:1.0;"/><!--MD5=[0bf4f2c995b211b19a4f9238e50da095]
link AttacksBuff to AttackBuff--><path codeLine="26" d="M277.5,286.205 C277.5,309.852 277.5,347.051 277.5,375.908 " fill="none" id="AttacksBuff-AttackBuff" style="stroke:#A80036;stroke-width:1.0;"/><!--MD5=[f87f4783208ebcdbe46122c00b8a8327]
link AddAttack to Buff--><path codeLine="27" d="M410.596,286.205 C412.705,309.558 416.008,346.127 418.6,374.827 " fill="none" id="AddAttack-to-Buff" style="stroke:#A80036;stroke-width:1.0;stroke-dasharray:7.0,7.0;"/><polygon fill="none" points="425.585,374.341,420.413,394.89,411.642,375.601,425.585,374.341" style="stroke:#A80036;stroke-width:1.0;"/><!--MD5=[a3fa0ae083300e711f767f369be9a4ac]
reverse link AttackList to Attack--><path codeLine="28" d="M242.25,171.328 C217.387,187.631 186.567,207.841 160.484,224.945 " fill="none" id="AttackList-backto-Attack" style="stroke:#A80036;stroke-width:1.0;"/><polygon fill="#FFFFFF" points="253.216,164.137,246.0051,164.0821,243.181,170.7171,250.3919,170.7721,253.216,164.137" style="stroke:#A80036;stroke-width:1.0;"/><!--MD5=[8c8627fabcd1bc1bd9e4d96eaea335e1]
link Tower to UpgradePath--><path codeLine="29" d="M397.2582,65.5579 C397.2582,65.5579 413.058,92.392 420.132,104.407 " fill="none" id="Tower-UpgradePath" style="stroke:#A80036;stroke-width:1.0;"/><polygon fill="#A80036" points="426.857,115.828,425.7378,106.0429,424.3202,111.5193,418.8439,110.1018,426.857,115.828" style="stroke:#A80036;stroke-width:1.0;"/><line style="stroke:#A80036;stroke-width:1.0;" x1="424.3202" x2="420.261" y1="111.5193" y2="104.6255"/><polygon fill="#A80036" points="391.17,55.217,390.7672,62.4168,397.2582,65.5579,397.6611,58.358,391.17,55.217" style="stroke:#A80036;stroke-width:1.0;"/><text fill="#000000" font-family="sans-serif" font-size="13" lengthAdjust="spacing" textLength="8" x="385.5271" y="75.0311">1</text><text fill="#000000" font-family="sans-serif" font-size="13" lengthAdjust="spacing" textLength="24" x="396.286" y="104.796">0..3</text><!--MD5=[81e4b5e8332e5729335a93e51308bc85]
link Tower to AttackList--><path codeLine="30" d="M358.188,55.217 C344.31,71.903 325.557,94.448 311.001,111.949 " fill="none" id="Tower-to-AttackList" style="stroke:#A80036;stroke-width:1.0;"/><polygon fill="#A80036" points="307.774,115.828,316.6042,111.466,310.9711,111.9837,310.4534,106.3506,307.774,115.828" style="stroke:#A80036;stroke-width:1.0;"/><!--MD5=[e66d130a4aa1d1fde5150bcb692657cb]
@startuml

interface Buff

Damage : int base
Damage : int ceramic
Damage : int moab

Projectile : int pierce
Projectile : int numSubProjectiles
Projectile - - Damage 
Projectile - - "subProjectile" Projectile

Attack : double cooldown
Attack : int numProjectiles
Attack - - Projectile : > uses

AttackBuff : int pierceIncrease
AttackBuff : double cooldownDecrease
AttackBuff : int projectileIncrease
AttackBuff - - Damage

UpgradePath "1" - - "1..5" Upgrade

Upgrade o- - Buff
AttacksBuff ..|> Buff
AttacksBuff - - AttackBuff
AddAttack ..|> Buff
AttackList o- - Attack
Tower "1" *- -> "0..3" UpgradePath
Tower - -> AttackList
@enduml

PlantUML version 1.2021.13beta8(Unknown compile time)
(GPL source distribution)
Java Runtime: Java(TM) SE Runtime Environment
JVM: Java HotSpot(TM) 64-Bit Server VM
Default Encoding: UTF-8
Language: en
Country: US
--></g></svg>